ply
format ascii 1.0
element vertex 78
property float x
property float y
property float z
property uchar red
property uchar green
property uchar blue
end_header
-7.9157 -305.6879 -1.9332 247 251 255
-6.9097 -71.6481 1.0883 247 252 250
10.9786 -148.8725 -3.0776 35 26 32
18.0756 -302.3331 -3.2655 252 250 251
41.8760 -392.1218 1.5491 7 0 12
59.4147 -63.3329 1.9194 59 51 52
65.5779 -334.3630 -1.2913 237 255 253
66.6932 -174.2020 1.7952 249 251 250
68.5579 -269.4794 0.0946 249 253 254
102.9393 -301.3648 -1.4073 242 249 243
103.1658 -133.4191 2.8634 241 253 246
108.6091 -309.4392 -0.9863 7 3 33
111.2010 -131.8815 -0.5442 81 68 141
129.5846 -10.4829 -1.7691 47 43 52
134.1779 -103.6970 2.0336 241 249 254
147.3859 -106.3640 1.3955 249 249 249
142.6838 -27.2613 -0.2198 232 241 237
169.7881 -387.3182 3.9369 42 30 55
169.8649 -58.6437 0.2749 52 46 84
177.2536 -63.7197 -0.0591 240 241 237
191.2791 -379.5165 1.8825 12 4 95
189.6330 -290.8276 2.5354 227 255 216
209.4308 -90.8244 2.3675 58 53 75
218.1618 -334.7558 2.4854 252 252 255
213.9439 -15.5412 0.1578 223 229 223
220.8361 -347.0929 2.7422 251 251 247
229.5167 -342.3092 3.3708 250 252 245
235.4783 -202.3687 5.4704 24 17 51
257.9343 -297.1521 0.6632 252 248 252
253.5070 -133.3959 4.5061 249 250 244
293.3912 -342.7694 2.7081 242 252 247
297.9478 -10.4113 2.8598 68 66 69
306.9379 -339.7970 0.3394 255 244 255
303.8741 -104.5677 0.6224 241 242 236
308.2909 -340.0434 2.6256 255 244 255
310.6943 -10.8836 1.3399 47 45 48
328.9338 -384.3904 2.9040 64 61 95
328.2318 -152.5931 0.7961 11 6 8
330.7937 -139.6326 1.0576 30 10 39
336.8242 -383.4307 4.5536 249 253 252
339.3551 -151.5004 0.4061 33 24 27
342.4729 -63.0956 1.8905 239 236 235
349.1825 -369.2763 3.7045 247 244 246
351.5371 -151.4498 0.5840 37 16 44
352.6292 -141.0421 0.7848 12 4 11
368.8384 -21.7958 2.9249 38 22 35
375.8059 -327.4057 3.0371 7 4 60
372.2985 -171.6176 0.3810 50 40 51
375.5292 -17.1099 3.7489 223 219 211
384.7478 -343.2006 1.9700 249 248 248
386.6846 -254.5839 -0.4511 255 249 251
392.2054 -198.0008 -0.1975 248 244 254
409.6927 -220.1261 1.3698 33 27 31
418.6046 -298.7328 -0.4235 245 251 250
415.2228 -216.6074 0.6767 252 247 247
425.9713 -370.9435 0.3979 252 251 249
421.3614 -69.3570 1.4903 28 20 21
420.6752 16.5634 12.9497 154 154 154
440.8536 -39.9741 -14.0518 255 249 247
448.1598 -344.0714 -0.8647 6 4 5
450.5555 -98.7470 0.5802 34 30 37
457.6583 -88.0578 -0.2059 51 47 52
462.9222 -101.8710 -1.2850 219 218 209
469.3562 -91.1545 0.2330 37 31 33
497.2581 -306.2296 -1.6723 243 239 242
498.1227 -298.3895 -2.2261 68 63 74
502.3754 -371.6483 -1.7713 251 247 251
500.4241 -340.5328 -2.5888 62 55 65
501.6631 -98.1572 -0.0875 37 31 31
528.9107 -339.9224 -2.4119 1 1 5
538.1894 -343.2404 -3.4323 228 228 233
543.7708 -300.6531 -7.5486 48 44 45
545.9972 -138.8782 0.0533 48 44 45
548.9224 -357.8712 -7.3245 251 247 249
549.7521 -344.0358 -3.3327 46 45 52
569.5143 -345.5261 -2.9709 162 151 161
576.9648 27.0563 5.0928 170 181 174
580.5751 27.5972 6.6384 224 222 201
